<svg xmlns="http://www.w3.org/2000/svg" viewBox="0 0 24 24" width="24" height="24" fill="#212529"><path d="M12 2c3.26 0 3.67.01 4.95.07 3.26.15 4.71 1.63 4.86 4.86.06 1.28.07 1.69.07 4.95s-.01 3.67-.07 4.95c-.15 3.23-1.6 4.71-4.86 4.86-1.28.06-1.69.07-4.95.07s-3.67-.01-4.95-.07c-3.23-.15-4.71-1.6-4.86-4.86C2.01 15.67 2 15.26 2 12s.01-3.67.07-4.95c.15-3.23 1.6-4.71 4.86-4.86C8.16 2.01 8.57 2 12 2zm0 1.8c-3.2 0-3.58.01-4.85.07-2.3.1-3.32 1.13-3.43 3.43-.06 1.27-.07 1.64-.07 4.85s.01 3.58.07 4.85c.1 2.3 1.13 3.32 3.43 3.43 1.27.06 1.64.07 4.85.07s3.58-.01 4.85-.07c2.3-.1 3.32-1.13 3.43-3.43.06-1.27.07-1.64.07-4.85s-.01-3.58-.07-4.85c-.1-2.3-1.13-3.32-3.43-3.43C15.58 3.81 15.2 3.8 12 3.8zm0 3.1c2.81 0 5.1 2.29 5.1 5.1s-2.29 5.1-5.1 5.1-5.1-2.29-5.1-5.1 2.29-5.1 5.1-5.1zm0 1.8c-1.82 0-3.3 1.48-3.3 3.3s1.48 3.3 3.3 3.3 3.3-1.48 3.3-3.3-1.48-3.3-3.3-3.3zm5.33-3.27a1.2 1.2 0 110 2.4 1.2 1.2 0 010-2.4z"/></svg>